<svg width="659" height="193" viewBox="0 0 659 193" fill="none" xmlns="http://www.w3.org/2000/svg">
<path d="M0 184.486V3.66971C0 1.66805 1.74221 0 3.83286 0H70.3853C80.4901 0 89.898 1.66805 98.6091 4.67054C107.32 7.67303 114.637 12.3436 120.561 18.0149C126.833 23.6863 131.363 30.3585 134.847 38.3651C138.331 46.3718 140.074 55.0456 140.074 64.3867C140.074 74.0614 138.331 82.7352 134.847 90.7419C131.363 98.7485 126.484 105.421 120.212 111.092C113.941 116.763 106.275 121.1 97.5638 124.103C88.8527 127.105 79.0963 128.773 68.6431 128.773H52.6147C50.5241 128.773 48.7819 130.441 48.7819 132.443V184.153C48.7819 186.154 47.0397 187.822 44.949 187.822H3.83286C1.74221 188.156 0 186.488 0 184.486ZM49.1303 42.3684V87.0722C49.1303 89.0738 50.8725 90.7419 52.9632 90.7419H59.2351C69.6884 90.7419 77.7026 88.4066 83.2776 84.0697C88.8527 79.3991 91.6402 73.0605 91.6402 64.3867C91.6402 47.039 81.187 38.3651 59.932 38.3651H53.3116C50.8725 38.6987 49.1303 40.3668 49.1303 42.3684Z" fill="#F3F3F3"/>
<path d="M153.663 53.3782H190.947C193.037 53.3782 194.78 55.0463 194.78 57.0479V135.446C194.78 149.124 200.703 156.13 212.899 156.13C219.17 156.13 224.049 154.128 227.533 150.125C231.018 146.122 232.76 140.784 232.76 134.112V57.3815C232.76 55.3799 234.502 53.7118 236.593 53.7118H273.876C275.966 53.7118 277.709 55.3799 277.709 57.3815V184.487C277.709 186.489 275.966 188.157 273.876 188.157H237.289C235.199 188.157 233.457 186.489 233.457 184.487V177.481H232.411C229.275 182.152 224.397 185.821 217.428 188.49C210.808 191.159 203.491 192.493 195.476 192.493C181.539 192.493 170.389 188.49 162.026 180.484C153.663 172.477 149.482 161.801 149.482 148.457V57.0479C149.482 55.0463 151.224 53.3782 153.663 53.3782Z" fill="#F3F3F3"/>
<path fill-rule="evenodd" clip-rule="evenodd" d="M536.217 187.383H573.5C575.591 187.383 577.333 185.715 577.681 183.38V106.649C577.681 99.9771 579.424 94.6394 582.908 90.636C586.392 86.6327 590.922 84.6311 596.846 84.6311C607.996 84.6311 613.571 91.3033 613.571 103.98V183.046C613.571 185.048 615.313 186.716 617.404 186.716H655.036C657.126 186.716 658.868 185.048 658.868 183.046V91.6369C658.868 85.2983 657.475 79.2933 655.384 73.9556C652.945 68.6178 650.157 63.9473 645.976 60.2776C641.795 56.6079 636.917 53.6054 631.341 51.6037C625.766 49.6021 619.494 48.6012 612.874 48.6012C609.39 48.6012 605.905 48.9348 601.724 49.6021C597.891 50.2693 593.71 51.2701 589.877 52.9382C586.044 54.6062 582.211 56.2742 579.075 58.6095C575.939 60.6112 573.5 63.2801 571.758 66.6162H570.364C562.35 54.6062 549.458 48.6012 532.732 48.6012C524.718 48.6012 517.749 49.9357 511.477 52.6045C505.206 55.2734 500.975 57.5547 496.967 62.0314L495.449 63.6137L490.621 69.3119C488.803 66.2002 486.685 63.4156 483.987 61.0477C479.806 57.3779 474.928 54.3755 469.353 52.3738C463.777 50.3721 457.505 49.3713 450.885 49.3713C447.401 49.3713 443.916 49.7049 439.735 50.3721C435.902 51.0394 431.721 52.0402 427.888 53.7082L427.888 53.7083C424.055 55.3763 420.222 57.0444 417.086 59.3796C413.95 61.3813 411.511 64.0501 409.769 67.3862H408.375C400.361 55.3763 387.469 49.3713 370.743 49.3713C362.729 49.3713 355.76 50.7058 349.488 53.3746C343.217 56.0435 338.338 59.7132 335.202 64.3837H333.46V57.0443C333.46 55.0427 331.718 53.3746 329.627 53.3746H293.389C291.299 53.3746 289.556 55.0427 289.556 57.0443V184.483C289.556 186.485 291.299 188.153 293.389 188.153H331.021C333.112 188.153 334.854 186.485 334.854 184.483V107.753C334.854 101.081 336.248 95.7431 339.732 91.7397C343.217 87.7364 347.746 85.7348 353.67 85.7348C364.82 85.7348 370.395 92.0734 370.395 105.084V184.483C370.395 186.485 372.137 188.153 374.228 188.153H411.511C413.602 188.153 415.344 186.485 415.692 184.15V107.419C415.692 100.747 417.435 95.4095 420.919 91.4061C424.404 87.4028 428.933 85.4012 434.857 85.4012C445.486 85.4012 451.049 91.4642 451.545 103.012V183.713C451.545 184.135 451.623 184.541 451.764 184.921C452.262 186.396 453.725 187.486 455.415 187.486H493.047C495.137 187.486 496.879 185.818 496.879 183.816V105.16C497.12 99.3318 498.56 94.6016 501.721 90.9697C505.206 86.9663 509.735 84.9647 515.659 84.9647C526.809 84.9647 532.384 91.3033 532.384 104.314V183.713C532.384 185.715 534.126 187.383 536.217 187.383Z" fill="#F3F3F3"/>
</svg>
